<svg width="32" height="32" viewBox="0 0 32 32" fill="none" xmlns="http://www.w3.org/2000/svg">
  <!-- Background circle -->
  <circle cx="16" cy="16" r="16" fill="#0F0F17"/>
  <circle cx="16" cy="16" r="15" stroke="#D4A853" stroke-width="0.8" opacity="0.6"/>
  <!-- Car body -->
  <path d="M6 20L8.5 13.5C9 12.2 10.2 11.5 11.5 11.5H20.5C21.8 11.5 23 12.2 23.5 13.5L26 20" stroke="#D4A853" stroke-width="1.5" stroke-linecap="round" stroke-linejoin="round"/>
  <!-- Car roof -->
  <path d="M10 11.5L12 7.5H20L22 11.5" stroke="#D4A853" stroke-width="1.5" stroke-linecap="round" stroke-linejoin="round"/>
  <!-- Car base -->
  <path d="M4 20H28V22C28 22.6 27.6 23 27 23H5C4.4 23 4 22.6 4 22V20Z" fill="#D4A853"/>
  <!-- Windshield -->
  <path d="M12.5 8.5H19.5L21.5 11.5H10.5L12.5 8.5Z" fill="#D4A853" opacity="0.3"/>
  <!-- Left wheel -->
  <circle cx="10" cy="23" r="2.8" fill="#0F0F17" stroke="#D4A853" stroke-width="1.2"/>
  <circle cx="10" cy="23" r="1" fill="#D4A853"/>
  <!-- Right wheel -->
  <circle cx="22" cy="23" r="2.8" fill="#0F0F17" stroke="#D4A853" stroke-width="1.2"/>
  <circle cx="22" cy="23" r="1" fill="#D4A853"/>
  <!-- Headlights -->
  <rect x="25" y="17" width="2" height="1.5" rx="0.5" fill="#D4A853" opacity="0.8"/>
  <rect x="5" y="17" width="2" height="1.5" rx="0.5" fill="#D4A853" opacity="0.8"/>
</svg>
